<svg xmlns="http://www.w3.org/2000/svg" width="22.028" height="22.088" viewBox="0 0 22.028 22.088">
  <g id="Notifications" transform="translate(0.777 0.75)">
    <path id="Path_1" data-name="Path 1" d="M19.283,18.014H12.849a2.573,2.573,0,0,1-5.147,0H1.269a1.236,1.236,0,0,1-1.158-.9A1.374,1.374,0,0,1,.5,15.7a5.18,5.18,0,0,0,2.059-4.118V7.72A7.72,7.72,0,1,1,18,7.72v3.86A5.18,5.18,0,0,0,20.055,15.7a1.218,1.218,0,0,1,.386,1.415A1.236,1.236,0,0,1,19.283,18.014Z" transform="translate(-0.063)" fill="none" stroke="#1dabdd" stroke-width="1.5" fill-rule="evenodd"/>
  </g>
</svg>
