<svg xmlns="http://www.w3.org/2000/svg" width="20.1" height="20.1" viewBox="0 0 20.1 20.1"><defs><style>.a{fill:#1dabdd;stroke:#fff;stroke-width:0.7px;}</style></defs><g transform="translate(0.35 0.35)"><path class="a" d="M9.7,0a9.7,9.7,0,1,0,9.7,9.7A9.728,9.728,0,0,0,9.7,0ZM1.94,9.7A7.783,7.783,0,0,1,9.7,1.94a7.644,7.644,0,0,1,4.753,1.649L3.589,14.453A7.644,7.644,0,0,1,1.94,9.7ZM9.7,17.46a7.644,7.644,0,0,1-4.753-1.649L15.811,4.947A7.644,7.644,0,0,1,17.46,9.7,7.783,7.783,0,0,1,9.7,17.46Z"/></g></svg>