<svg xmlns="http://www.w3.org/2000/svg" width="36.857" height="22.929" viewBox="0 0 36.857 22.929"><defs><style>.a{fill:#1dabdd;}</style></defs><g transform="translate(0 0)"><path class="a" d="M36.817,79.64a.9.9,0,0,0-.652-.367H28.549l-5.132-5.905a.654.654,0,0,0-.448-.2H16.861a.15.15,0,0,0-.041-.122l-2.281-4.317a.636.636,0,0,0-.529-.326H10.955a.626.626,0,0,0-.611.611v4.113H7.9a.7.7,0,0,0-.529.285L3.91,79.233H2.118a.6.6,0,0,0-.611.611,11.718,11.718,0,0,0,.937,4.6A4.762,4.762,0,0,0,.611,84.12a.611.611,0,0,0,0,1.222,3.928,3.928,0,0,1,2.769,1.1,5.177,5.177,0,0,0,3.5,1.344h.57A.579.579,0,0,0,7.7,87.7a5.524,5.524,0,0,0,2.688-1.263,4.037,4.037,0,0,1,5.539,0,5.236,5.236,0,0,0,7,0,4.037,4.037,0,0,1,5.539,0,5.177,5.177,0,0,0,3.5,1.344.611.611,0,0,0,0-1.222,3.211,3.211,0,0,1-1.14-.163l5.865-6.109A.638.638,0,0,0,36.817,79.64ZM14.5,71.332l.977,1.873h-3.91V71.332Zm-2.973-1.67H13.6l.244.448H11.526v-.448ZM8.267,74.387H22.685l1.914,2.2H6.923ZM6.231,77.808H25.658l1.3,1.466H5.335Zm23.377,8.064-.489-.367a5.236,5.236,0,0,0-7,0,4.037,4.037,0,0,1-5.539,0,5.177,5.177,0,0,0-3.5-1.344,5.265,5.265,0,0,0-3.5,1.344,3.893,3.893,0,0,1-2.484,1.059,3.765,3.765,0,0,1-2.606-1.14C3.1,84,2.769,81.6,2.688,80.5H34.7Z" transform="translate(0 -68.4)"/></g><g transform="translate(0 19.264)"><path class="a" d="M31.97,260.044a3.928,3.928,0,0,1-2.769-1.1,5.236,5.236,0,0,0-7,0,4.037,4.037,0,0,1-5.539,0,5.177,5.177,0,0,0-3.5-1.344,5.265,5.265,0,0,0-3.5,1.344,3.951,3.951,0,0,1-2.769,1.1,3.928,3.928,0,0,1-2.769-1.1,5.177,5.177,0,0,0-3.5-1.344.611.611,0,1,0,0,1.222,3.928,3.928,0,0,1,2.769,1.1,5.071,5.071,0,0,0,3.5,1.344,5.265,5.265,0,0,0,3.5-1.344,4.037,4.037,0,0,1,5.539,0,5.236,5.236,0,0,0,7,0,4.037,4.037,0,0,1,5.539,0,5.177,5.177,0,0,0,3.5,1.344.611.611,0,1,0,0-1.222Z" transform="translate(0 -257.6)"/></g></svg>