<svg xmlns="http://www.w3.org/2000/svg" width="100%" height="100%" viewBox="0 0 23.881 25.331"><defs><style>.a{fill:#fff;}</style></defs><g transform="translate(-1.28)"><g transform="translate(1.28)"><path class="a" d="M14.733,24.994a1.433,1.433,0,0,1-.787.553l-1.582.432a1.419,1.419,0,0,1-1.794-1.243L10.431,23.1a1.4,1.4,0,0,1,.248-.94l.058-.084H5.1a.83.83,0,0,1,0-1.66h6.828l1.526-2.18H5.1a.83.83,0,0,1,0-1.661l9.529-.024L18.2,11.43V7.636a1.107,1.107,0,0,0-1.1-1.127H14.359V8.674A1.839,1.839,0,0,1,12.5,10.5H7a1.815,1.815,0,0,1-1.829-1.83V6.509H2.407A1.126,1.126,0,0,0,1.28,7.636V27A1.15,1.15,0,0,0,2.407,28.15H17.094A1.131,1.131,0,0,0,18.2,27V20.073ZM5.1,12.737h9.31a.83.83,0,0,1,0,1.66H5.1a.83.83,0,0,1,0-1.66Z" transform="translate(-1.28 -2.819)"/><path class="a" d="M10.823,6.6h5.5a.755.755,0,0,0,.754-.755V2.68a.755.755,0,0,0-.754-.755h-.828a1.935,1.935,0,0,0-3.869,0h-.8a.754.754,0,0,0-.754.755V5.84A.755.755,0,0,0,10.823,6.6Zm2.735-5.524a.862.862,0,0,1,.862.853H12.694A.864.864,0,0,1,13.558,1.072Z" transform="translate(-5.087)"/><path class="a" d="M34.155,7.908a.537.537,0,0,0-.222-.345L32.557,6.6a.533.533,0,0,0-.743.132l-9.749,13.98,2.252,1.571,9.751-13.98A.539.539,0,0,0,34.155,7.908Z" transform="translate(-10.282 -2.818)"/><path class="a" d="M19.354,34.786l.141,1.642a.315.315,0,0,0,.134.234.325.325,0,0,0,.182.059.3.3,0,0,0,.083-.012l1.59-.435a.323.323,0,0,0,.177-.125l.6-.856L20,33.721l-.6.856A.31.31,0,0,0,19.354,34.786Z" transform="translate(-9.108 -14.606)"/></g></g></svg>