<svg xmlns="http://www.w3.org/2000/svg" width="100%" height="100%" viewBox="0 0 26.833 20.5"><defs><style>.a{fill:#fff;}</style></defs><g transform="translate(0 -35.048)"><g transform="translate(0 35.048)"><g transform="translate(0 0)"><path class="a" d="M35.791,35.049h0a.946.946,0,0,0-.673.279.956.956,0,0,0-.283.681v14.4a.963.963,0,0,0,.961.96c2.235.005,5.979.471,8.563,3.174V39.474a.92.92,0,0,0-.132-.486C42.1,35.573,38.031,35.054,35.791,35.049Z" transform="translate(-31.686 -35.049)"/><path class="a" d="M166.275,50.406v-14.4a.958.958,0,0,0-.955-.96h0c-2.24.005-6.314.524-8.434,3.938a.92.92,0,0,0-.132.486V54.541c2.583-2.7,6.328-3.169,8.563-3.174A.963.963,0,0,0,166.275,50.406Z" transform="translate(-142.589 -35.048)"/><path class="a" d="M181.862,71.8h-.7V83.839a2.457,2.457,0,0,1-2.448,2.451c-1.9,0-5.022.375-7.235,2.47a23.115,23.115,0,0,1,10.165.2.96.96,0,0,0,1.175-.936V72.761A.961.961,0,0,0,181.862,71.8Z" transform="translate(-155.989 -68.48)"/><path class="a" d="M1.656,83.839V71.8H.96a.961.961,0,0,0-.96.96V88.02a.96.96,0,0,0,1.175.936,23.113,23.113,0,0,1,10.165-.2C9.126,86.665,6,86.294,4.1,86.289A2.456,2.456,0,0,1,1.656,83.839Z" transform="translate(0 -68.48)"/></g></g></g></svg>