<svg xmlns="http://www.w3.org/2000/svg" width="100%" height="100%" viewBox="0 0 21.031 23.728"><defs><style>.a{fill:#fff;}</style></defs><g transform="translate(-2.671)"><g transform="translate(2.671)"><path class="a" d="M19.807,16.638a.539.539,0,0,0,1.078,0,2.686,2.686,0,0,1,.632-1.727,11.078,11.078,0,0,0,2.013-3.459.539.539,0,0,0-.508-.718H17.67a.539.539,0,0,0-.509.718,11.1,11.1,0,0,0,2.013,3.459A2.686,2.686,0,0,1,19.807,16.638Z" transform="translate(-9.831 -5.315)"/><path class="a" d="M18.221,26.182a.539.539,0,0,0-1.078,0,2.807,2.807,0,0,1-1.309,2.173,14.165,14.165,0,0,0-4.014,4.3.54.54,0,0,0,.47.8H23.075a.539.539,0,0,0,.469-.8,14.163,14.163,0,0,0-4.013-4.3A2.805,2.805,0,0,1,18.221,26.182Z" transform="translate(-7.167 -12.698)"/><path class="a" d="M22.622,21.571H22.3c-.371-4.2-2.828-7.418-4.738-9.707,1.911-2.288,4.367-5.51,4.739-9.707h.323a1.079,1.079,0,0,0,0-2.157H3.749a1.079,1.079,0,0,0,0,2.157h.323c.371,4.2,2.828,7.42,4.738,9.707-1.91,2.288-4.367,5.51-4.739,9.707H3.749a1.079,1.079,0,0,0,0,2.157H22.623a1.079,1.079,0,1,0,0-2.157Zm-16.389,0c.405-3.792,2.87-6.712,4.713-8.894l.1-.117a1.078,1.078,0,0,0,0-1.391l-.1-.116c-1.842-2.182-4.308-5.1-4.713-8.895H20.139c-.405,3.792-2.871,6.712-4.713,8.895l-.1.116a1.078,1.078,0,0,0,0,1.391l.1.117c1.842,2.182,4.307,5.1,4.712,8.894H6.234Z" transform="translate(-2.671)"/></g></g></svg>