<svg xmlns="http://www.w3.org/2000/svg" width="21.758" height="21.758" viewBox="0 0 21.758 21.758"><defs><style>.a{fill:#898989;stroke:#f0f0f0;stroke-width:0.3px;}</style></defs><g transform="translate(0.15 0.15)"><path class="a" d="M18.943,1.676H17.937V0H16.261V1.676H5.2V0H3.52V1.676H2.515A2.517,2.517,0,0,0,0,4.191V18.943a2.517,2.517,0,0,0,2.515,2.515H18.943a2.517,2.517,0,0,0,2.515-2.515V4.191A2.517,2.517,0,0,0,18.943,1.676Zm.838,17.267a.839.839,0,0,1-.838.838H2.515a.839.839,0,0,1-.838-.838V7.879h18.1Zm0-12.741H1.676V4.191a.839.839,0,0,1,.838-.838H3.52V5.029H5.2V3.353H16.261V5.029h1.676V3.353h1.006a.839.839,0,0,1,.838.838Z"/><g transform="translate(12.19 9.826)"><g transform="translate(0 0)"><rect class="a" width="2" height="2" transform="translate(-0.202 -0.338)"/></g></g><g transform="translate(12.19 15.826)"><g transform="translate(0 0)"><rect class="a" width="2" height="2" transform="translate(-0.202 -0.338)"/></g></g><g transform="translate(4.19 9.826)"><g transform="translate(0 0)"><rect class="a" width="2" height="2" transform="translate(-0.202 -0.338)"/></g></g><g transform="translate(4.19 15.826)"><g transform="translate(0 0)"><rect class="a" width="2" height="2" transform="translate(-0.202 -0.338)"/></g></g><g transform="translate(16.101 9.826)"><g transform="translate(0 0)"><rect class="a" width="2" height="2" transform="translate(-0.113 -0.338)"/></g></g><g transform="translate(16.101 15.826)"><g transform="translate(0 0)"><rect class="a" width="2" height="2" transform="translate(-0.113 -0.338)"/></g></g><g transform="translate(8.101 9.826)"><g transform="translate(0 0)"><rect class="a" width="2" height="2" transform="translate(-0.113 -0.338)"/></g></g><g transform="translate(8.101 15.826)"><g transform="translate(0 0)"><rect class="a" width="2" height="2" transform="translate(-0.113 -0.338)"/></g></g><g transform="translate(12.19 12.737)"><g transform="translate(0 0)"><rect class="a" width="2" height="2" transform="translate(-0.202 -0.249)"/></g></g><g transform="translate(4.19 12.737)"><g transform="translate(0 0)"><rect class="a" width="2" height="2" transform="translate(-0.202 -0.249)"/></g></g><g transform="translate(16.101 12.737)"><g transform="translate(0 0)"><rect class="a" width="2" height="2" transform="translate(-0.113 -0.249)"/></g></g><g transform="translate(8.101 12.737)"><g transform="translate(0 0)"><rect class="a" width="2" height="2" transform="translate(-0.113 -0.249)"/></g></g></g></svg>