<svg xmlns="http://www.w3.org/2000/svg" width="15.444" height="14.043" viewBox="0 0 15.444 14.043"><defs><style>.a{fill:#1dabdd;}</style></defs><g transform="translate(-5.411 -1.752)"><g transform="translate(5.411)"><path class="a" d="M119,258.6a.358.358,0,0,0-.359-.358h-1.251a.358.358,0,0,0-.358.358v1.251a.358.358,0,0,0,.358.358h1.251a.358.358,0,0,0,.359-.358V258.6Z" transform="translate(-113.423 -250.886)"/><path class="a" d="M215.638,258.6a.358.358,0,0,0-.358-.358h-1.251a.358.358,0,0,0-.358.358v1.251a.358.358,0,0,0,.358.358h1.251a.358.358,0,0,0,.358-.358Z" transform="translate(-206.932 -250.886)"/><path class="a" d="M312.266,258.6a.358.358,0,0,0-.358-.358h-1.251a.358.358,0,0,0-.359.358v1.251a.358.358,0,0,0,.359.358h1.251a.358.358,0,0,0,.358-.358Z" transform="translate(-300.433 -250.886)"/><path class="a" d="M119,355.233a.358.358,0,0,0-.359-.358h-1.251a.358.358,0,0,0-.358.358v1.251a.358.358,0,0,0,.358.358h1.251a.358.358,0,0,0,.359-.358v-1.251Z" transform="translate(-113.423 -344.393)"/><path class="a" d="M215.638,355.233a.358.358,0,0,0-.358-.358h-1.251a.358.358,0,0,0-.358.358v1.251a.358.358,0,0,0,.358.358h1.251a.358.358,0,0,0,.358-.358Z" transform="translate(-206.932 -344.393)"/><path class="a" d="M312.266,355.233a.358.358,0,0,0-.358-.358h-1.251a.358.358,0,0,0-.359.358v1.251a.358.358,0,0,0,.359.358h1.251a.358.358,0,0,0,.358-.358v-1.251Z" transform="translate(-300.433 -344.393)"/><path class="a" d="M19.481,54.149c-2.8-.009-4.124-.007-4.124-.007H10.91s-1.561,0-4.124.007a1.422,1.422,0,0,0-1.375,1.415v11.2a1.423,1.423,0,0,0,1.416,1.424H19.44a1.424,1.424,0,0,0,1.416-1.424v-11.2A1.422,1.422,0,0,0,19.481,54.149Zm-.458,10.915a.612.612,0,0,1-.612.612H7.829a.612.612,0,0,1-.612-.612V59.28a.612.612,0,0,1,.612-.612H18.41a.612.612,0,0,1,.612.612v5.784Z" transform="translate(-5.411 -52.39)"/></g></g></svg>