<svg xmlns="http://www.w3.org/2000/svg" width="14.947" height="14.913" viewBox="0 0 14.947 14.913"><defs><style>.a{fill:#1dabdd;}</style></defs><g transform="translate(0 -0.394)"><g transform="translate(0 0.394)"><g transform="translate(0 0)"><path class="a" d="M14.612,12.189,12.3,9.881a1.2,1.2,0,0,0-1.7.032L9.443,11.075l-.229-.128a11.573,11.573,0,0,1-2.8-2.023,11.637,11.637,0,0,1-2.027-2.8c-.043-.078-.084-.153-.125-.224l.781-.779.384-.384a1.2,1.2,0,0,0,.031-1.7L3.151.729a1.2,1.2,0,0,0-1.7.032l-.633.672a3.762,3.762,0,0,0-.536.946,3.92,3.92,0,0,0-.238.959c-.3,2.527.85,4.836,3.984,7.97,4.332,4.331,7.823,4,7.973,3.988a3.9,3.9,0,0,0,.962-.242,3.749,3.749,0,0,0,.942-.534l.014.013.659-.645A1.2,1.2,0,0,0,14.612,12.189Z" transform="translate(0 -0.394)"/></g></g></g></svg>