<svg xmlns="http://www.w3.org/2000/svg" width="15.462" height="12.169" viewBox="0 0 15.462 12.169"><defs><style>.a{fill:#676767;}</style></defs><g transform="translate(0 -44.8)"><g transform="translate(0 44.8)"><g transform="translate(0 0)"><path class="a" d="M14.947,46.7a1.662,1.662,0,0,0-1.22-.514h-2.44v-.029a1.32,1.32,0,0,0-.4-.955,1.345,1.345,0,0,0-.955-.4H5.526a1.355,1.355,0,0,0-1.367,1.352v.029H1.734a1.662,1.662,0,0,0-1.22.514A1.747,1.747,0,0,0,0,47.916v7.319a1.662,1.662,0,0,0,.514,1.22,1.747,1.747,0,0,0,1.22.514H13.727a1.662,1.662,0,0,0,1.22-.514,1.747,1.747,0,0,0,.514-1.22V47.916A1.662,1.662,0,0,0,14.947,46.7Zm-.25,8.539h-.015a.953.953,0,0,1-.955.955H1.734a.953.953,0,0,1-.955-.955V47.916a.953.953,0,0,1,.955-.955H4.571a.4.4,0,0,0,.4-.4v-.426a.553.553,0,0,1,.573-.573H9.935a.553.553,0,0,1,.573.573v.426a.4.4,0,0,0,.4.4h2.837a.953.953,0,0,1,.955.955Z" transform="translate(0 -44.8)"/><path class="a" d="M115.616,130.8a3.613,3.613,0,1,0,2.557,1.058A3.622,3.622,0,0,0,115.616,130.8Zm2,5.629a2.839,2.839,0,0,1-4,0,2.81,2.81,0,0,1-.823-2,2.872,2.872,0,0,1,.823-2,2.81,2.81,0,0,1,2-.823,2.872,2.872,0,0,1,2,.823,2.81,2.81,0,0,1,.823,2A2.75,2.75,0,0,1,117.614,136.429Z" transform="translate(-107.885 -127.64)"/><circle class="a" cx="0.72" cy="0.72" r="0.72" transform="translate(12.243 3.145)"/></g></g></g></svg>