<svg xmlns="http://www.w3.org/2000/svg" width="19.399" height="19.399" viewBox="0 0 19.399 19.399"><defs><style>.a{fill:#4adc00;}</style></defs><path class="a" d="M9.7,0a9.7,9.7,0,1,0,9.7,9.7A9.7,9.7,0,0,0,9.7,0Zm0,18.187A8.487,8.487,0,1,1,18.187,9.7,8.487,8.487,0,0,1,9.7,18.187Z"/><path class="a" d="M94.17,121.689l-6.237,6.181-2.6-2.544a.616.616,0,0,0-.866,0,.6.6,0,0,0,0,.857l3.031,2.97a.627.627,0,0,0,.866,0l6.668-6.607a.6.6,0,0,0,0-.857A.618.618,0,0,0,94.17,121.689Z" transform="translate(-80.045 -115.389)"/></svg>