<svg xmlns="http://www.w3.org/2000/svg" width="15.3" height="15.3" viewBox="0 0 15.3 15.3"><defs><style>.a{fill:#898989;stroke:#898989;stroke-width:0.3px;}</style></defs><g transform="translate(0.15 0.15)"><path class="a" d="M7.5,0A7.5,7.5,0,1,0,15,7.5,7.508,7.508,0,0,0,7.5,0Zm0,14.423A6.923,6.923,0,1,1,14.423,7.5,6.931,6.931,0,0,1,7.5,14.423Z"/><path class="a" d="M21.685,16.084a.288.288,0,0,0-.408,0l-2.392,2.392-2.392-2.392a.288.288,0,0,0-.408.408l2.392,2.392-2.392,2.392a.288.288,0,1,0,.408.408l2.392-2.392,2.392,2.392a.288.288,0,0,0,.408-.408l-2.392-2.392,2.392-2.392A.288.288,0,0,0,21.685,16.084Z" transform="translate(-11.384 -11.384)"/></g></svg>