<svg xmlns="http://www.w3.org/2000/svg" width="19.699" height="19.699" viewBox="0 0 19.699 19.699"><defs><style>.a{fill:red;stroke:red;stroke-width:0.3px;}</style></defs><g transform="translate(0.15 0.15)"><path class="a" d="M9.7,0a9.7,9.7,0,1,0,9.7,9.7A9.711,9.711,0,0,0,9.7,0Zm0,18.653A8.954,8.954,0,1,1,18.653,9.7,8.964,8.964,0,0,1,9.7,18.653Z"/><path class="a" d="M23.352,16.109a.373.373,0,0,0-.528,0L19.73,19.2l-3.094-3.094a.373.373,0,1,0-.528.528L19.2,19.73l-3.094,3.094a.373.373,0,1,0,.528.528l3.094-3.094,3.094,3.094a.373.373,0,1,0,.528-.528L20.258,19.73l3.094-3.094A.373.373,0,0,0,23.352,16.109Z" transform="translate(-10.031 -10.031)"/></g></svg>