<svg xmlns="http://www.w3.org/2000/svg" width="15.756" height="19.4" viewBox="0 0 15.756 19.4"><defs><style>.a{fill:#1dabdd;}</style></defs><g transform="translate(0.003 0.001)"><path class="a" d="M222.852,154.7a.454.454,0,0,0-.454.454v8.587a.454.454,0,0,0,.909,0v-8.587A.454.454,0,0,0,222.852,154.7Zm0,0" transform="translate(-212.297 -147.676)"/><path class="a" d="M104.852,154.7a.454.454,0,0,0-.454.454v8.587a.454.454,0,0,0,.909,0v-8.587A.454.454,0,0,0,104.852,154.7Zm0,0" transform="translate(-99.658 -147.676)"/><path class="a" d="M1.287,5.774V16.968A2.507,2.507,0,0,0,1.953,18.7a2.237,2.237,0,0,0,1.623.7h8.6a2.237,2.237,0,0,0,1.623-.7,2.507,2.507,0,0,0,.666-1.729V5.774a1.736,1.736,0,0,0-.445-3.413H11.691V1.793A1.785,1.785,0,0,0,9.892,0H5.858a1.785,1.785,0,0,0-1.8,1.795v.568H1.732a1.736,1.736,0,0,0-.445,3.413ZM12.173,18.49h-8.6A1.439,1.439,0,0,1,2.2,16.968V5.814H13.554V16.968a1.439,1.439,0,0,1-1.381,1.522ZM4.967,1.793A.875.875,0,0,1,5.858.907H9.892a.875.875,0,0,1,.891.886v.568H4.967ZM1.732,3.27H14.017a.818.818,0,0,1,0,1.636H1.732a.818.818,0,0,1,0-1.636Zm0,0" transform="translate(0)"/><path class="a" d="M163.852,154.7a.454.454,0,0,0-.454.454v8.587a.454.454,0,0,0,.909,0v-8.587A.454.454,0,0,0,163.852,154.7Zm0,0" transform="translate(-155.978 -147.676)"/></g></svg>