<svg xmlns="http://www.w3.org/2000/svg" width="20.833" height="27.723" viewBox="0 0 20.833 27.723"><defs><style>.a{stroke:#000;stroke-width:0.6px;}</style></defs><g transform="translate(68.647 0.373) rotate(90)"><g transform="translate(0 48.114)"><path class="a" d="M2.869,55.718H16.014a.852.852,0,0,0,0-1.7H2.869l4.384-4.447a.856.856,0,0,0,0-1.2.836.836,0,0,0-1.192,0l-5.816,5.9a.864.864,0,0,0,0,1.2l5.817,5.9a.837.837,0,0,0,1.192,0,.856.856,0,0,0,0-1.2Z" transform="translate(0 -48.114)"/><path class="a" d="M161,150.294l-5.817-5.9a.837.837,0,0,0-1.192,0,.856.856,0,0,0,0,1.2l4.384,4.447H145.234a.852.852,0,0,0,0,1.7h13.145L154,156.195a.856.856,0,0,0,0,1.2.836.836,0,0,0,1.192,0L161,151.5A.862.862,0,0,0,161,150.294Z" transform="translate(-134.273 -137.415)"/></g></g></svg>