<svg xmlns="http://www.w3.org/2000/svg" width="19.451" height="23.214" viewBox="0 0 19.451 23.214"><defs><style>.a{stroke:#fff0f0;}</style></defs><g transform="translate(-41.174 22.714) rotate(-90)"><g transform="translate(0 41.674)"><path class="a" d="M20.965,49.157l.035.008H6.135l4.673-4.683a1.227,1.227,0,0,0,0-1.725l-.727-.727a1.216,1.216,0,0,0-1.717,0L.354,50.038a1.225,1.225,0,0,0,0,1.723l8.01,8.01a1.217,1.217,0,0,0,1.717,0l.727-.727a1.2,1.2,0,0,0,.354-.858,1.167,1.167,0,0,0-.354-.842L6.083,52.633h14.9a1.259,1.259,0,0,0,1.232-1.246V50.358A1.235,1.235,0,0,0,20.965,49.157Z" transform="translate(0 -41.674)"/></g></g></svg>