<svg xmlns="http://www.w3.org/2000/svg" width="19.498" height="19.4" viewBox="0 0 19.498 19.4"><defs><style>.a{fill:#1dabdd;}</style></defs><g transform="translate(0 -0.261)"><path class="a" d="M18,49.457a.486.486,0,0,0-.486.486v4.312a1.458,1.458,0,0,1-1.457,1.457H2.428A1.458,1.458,0,0,1,.971,54.254V41.6a1.458,1.458,0,0,1,1.457-1.457H6.739a.486.486,0,0,0,0-.971H2.428A2.431,2.431,0,0,0,0,41.6V54.254a2.431,2.431,0,0,0,2.428,2.428H16.053a2.431,2.431,0,0,0,2.428-2.428V49.943A.486.486,0,0,0,18,49.457Zm0,0" transform="translate(0 -37.022)"/><path class="a" d="M121.225.9a2.185,2.185,0,0,0-3.09,0l-8.663,8.663a.485.485,0,0,0-.125.214l-1.139,4.113a.485.485,0,0,0,.6.6l4.113-1.139a.485.485,0,0,0,.214-.125L121.8,4.561a2.188,2.188,0,0,0,0-3.09ZM110.53,9.88l7.09-7.09,2.287,2.287-7.09,7.09Zm-.457.917,1.827,1.827-2.527.7Zm11.035-6.922-.515.515L118.307,2.1l.515-.515a1.214,1.214,0,0,1,1.717,0l.57.57A1.216,1.216,0,0,1,121.108,3.874Zm0,0" transform="translate(-102.937)"/></g></svg>