<svg xmlns="http://www.w3.org/2000/svg" width="27.039" height="13.982" viewBox="0 0 27.039 13.982"><defs><style>.a{fill:#1dabdd;stroke:#fff;stroke-width:0.3px;}</style></defs><path class="a" d="M26.271,6.357a18.3,18.3,0,0,0-3.509-3.183A16.384,16.384,0,0,0,13.327,0,16.384,16.384,0,0,0,3.893,3.174,18.3,18.3,0,0,0,.384,6.357L0,6.841l.385.484a18.3,18.3,0,0,0,3.509,3.183,16.384,16.384,0,0,0,9.434,3.175,16.384,16.384,0,0,0,9.434-3.175,18.3,18.3,0,0,0,3.509-3.183l.385-.484Zm-7.657.484a5.292,5.292,0,0,1-5.147,5.284l-.139,0-.139,0a5.286,5.286,0,0,1,0-10.569l.139,0,.139,0A5.293,5.293,0,0,1,18.614,6.841Zm-16.584,0a18.327,18.327,0,0,1,2.8-2.425A16.868,16.868,0,0,1,7.879,2.709a6.826,6.826,0,0,0,0,8.265A16.867,16.867,0,0,1,4.831,9.266,18.306,18.306,0,0,1,2.029,6.841ZM21.824,9.266a16.855,16.855,0,0,1-3.049,1.707,6.826,6.826,0,0,0,0-8.265,16.867,16.867,0,0,1,3.049,1.707,18.342,18.342,0,0,1,2.8,2.425A18.318,18.318,0,0,1,21.824,9.266Zm0,0" transform="translate(0.192 0.15)"/></svg>