<svg xmlns="http://www.w3.org/2000/svg" width="20.21" height="20.21" viewBox="0 0 20.21 20.21"><defs><style>.a{fill:#707070;stroke:#707070;stroke-width:0.5px;}</style></defs><g transform="translate(0.25 0.25)"><path class="a" d="M25.3,16.6A2.3,2.3,0,1,0,23,14.3,2.3,2.3,0,0,0,25.3,16.6Zm0-3.942A1.643,1.643,0,1,1,23.657,14.3,1.644,1.644,0,0,1,25.3,12.657Z" transform="translate(-15.444 -8.058)"/><path class="a" d="M16.946,17.988l5.04-7.279A7.178,7.178,0,0,0,21.4,1.846a6.3,6.3,0,0,0-8.909,0A7.176,7.176,0,0,0,11.9,10.7ZM12.956,2.31a5.643,5.643,0,0,1,7.98,0,6.485,6.485,0,0,1,.517,8.015l-4.507,6.509-4.514-6.519A6.483,6.483,0,0,1,12.956,2.31Z" transform="translate(-7.149 0)"/><path class="a" d="M13.836,43a.328.328,0,0,0-.077.652c3.455.407,5.295,1.5,5.295,2.138,0,.892-3.5,2.135-9.2,2.135s-9.2-1.244-9.2-2.135c0-.635,1.84-1.731,5.295-2.138A.328.328,0,0,0,5.875,43C2.416,43.409,0,44.556,0,45.792c0,1.388,3.385,2.792,9.855,2.792s9.855-1.4,9.855-2.792C19.71,44.556,17.295,43.409,13.836,43Z" transform="translate(0 -28.874)"/></g></svg>