<svg xmlns="http://www.w3.org/2000/svg" width="15.444" height="12.135" viewBox="0 0 15.444 12.135"><defs><style>.a{fill:#1dabdd;}</style></defs><g transform="translate(0 -54.82)"><g transform="translate(0 54.82)"><path class="a" d="M1.482,58.56q.293.207,1.767,1.228t2.258,1.573l.366.263q.28.2.465.328t.448.28a2.6,2.6,0,0,0,.5.232,1.365,1.365,0,0,0,.431.078h.017a1.367,1.367,0,0,0,.431-.078,2.6,2.6,0,0,0,.5-.232q.263-.155.448-.28t.465-.328q.28-.2.366-.263l4.033-2.8a4.094,4.094,0,0,0,1.051-1.06,2.276,2.276,0,0,0,.422-1.3,1.391,1.391,0,0,0-1.379-1.379H1.379a1.231,1.231,0,0,0-1.021.448A1.74,1.74,0,0,0,0,56.388a2.013,2.013,0,0,0,.474,1.177A4.278,4.278,0,0,0,1.482,58.56Z" transform="translate(0 -54.82)"/><path class="a" d="M14.582,185.187q-2.827,1.913-4.292,2.973-.491.362-.8.564a4.92,4.92,0,0,1-.814.414,2.48,2.48,0,0,1-.948.211H7.714a2.481,2.481,0,0,1-.948-.211,4.922,4.922,0,0,1-.814-.414q-.306-.2-.8-.564-1.164-.853-4.283-2.973a4.564,4.564,0,0,1-.871-.75v6.843a1.327,1.327,0,0,0,.405.974,1.328,1.328,0,0,0,.974.405H14.066a1.383,1.383,0,0,0,1.379-1.379v-6.843A4.753,4.753,0,0,1,14.582,185.187Z" transform="translate(0 -180.524)"/></g></g></svg>