<svg xmlns="http://www.w3.org/2000/svg" width="23.688" height="20.187" viewBox="0 0 23.688 20.187"><defs><style>.a{fill:#1dabdd;stroke:#1dabdd;stroke-width:0.8px;}</style></defs><g transform="translate(0.4 -7.262)"><path class="a" d="M22.7,14.179a1.63,1.63,0,0,0-.641-.677L12.252,7.9a1.641,1.641,0,0,0-1.622,0L.824,13.5A1.664,1.664,0,0,0,0,14.922V26.234a.809.809,0,0,0,.142.458.659.659,0,0,0,.064.076.588.588,0,0,0,.076.076.557.557,0,0,0,.057.046.8.8,0,0,0,.483.16h21.25a.825.825,0,0,0,.483-.16.6.6,0,0,0,.082-.069.524.524,0,0,0,.048-.053.729.729,0,0,0,.08-.108.806.806,0,0,0,.124-.428V14.922A1.688,1.688,0,0,0,22.7,14.179Zm-.227.744v11.5L22.44,26.4l-8.259-6.948,8.284-4.671.009,0Zm-.32,11.762H.771l.05-.043,8.128-7.05.165-.142.165-.142L10.9,17.9a.611.611,0,0,1,.8-.007l1.773,1.49.167.14.167.14,8.3,6.973ZM.41,26.232V14.776l.009,0,8.153,4.6L.455,26.417l-.048.041v-.227Zm.616-12.376,9.808-5.6a1.229,1.229,0,0,1,1.217,0l9.808,5.6a1.217,1.217,0,0,1,.487.522l-8.5,4.792-1.89-1.588a1.017,1.017,0,0,0-1.327.011l-1.73,1.5L.538,14.38A1.251,1.251,0,0,1,1.025,13.856Z" transform="translate(0 0)"/></g></svg>