<svg xmlns="http://www.w3.org/2000/svg" width="25.558" height="25.5" viewBox="0 0 25.558 25.5"><defs><style>.a{fill:#fff;}</style></defs><g transform="translate(0 -0.394)"><g transform="translate(0 0.394)"><g transform="translate(0 0)"><path class="a" d="M24.984,20.563l-3.947-3.947a2.058,2.058,0,0,0-2.9.055l-1.989,1.988-.392-.218a19.788,19.788,0,0,1-4.783-3.459,19.9,19.9,0,0,1-3.466-4.792c-.074-.133-.144-.261-.214-.383L8.626,8.473l.656-.657a2.056,2.056,0,0,0,.053-2.9L5.388.966a2.056,2.056,0,0,0-2.9.055L1.374,2.14l.03.03A6.433,6.433,0,0,0,.488,3.787,6.7,6.7,0,0,0,.08,5.427C-.441,9.747,1.534,13.7,6.892,19.055,14.3,26.461,20.268,25.9,20.525,25.874a6.669,6.669,0,0,0,1.645-.413,6.411,6.411,0,0,0,1.611-.913l.024.022,1.127-1.1A2.06,2.06,0,0,0,24.984,20.563Z" transform="translate(0 -0.394)"/></g></g></g></svg>