<svg xmlns="http://www.w3.org/2000/svg" width="9.081" height="16.797" viewBox="0 0 9.081 16.797"><defs><style>.a{fill:#fff;}</style></defs><path class="a" d="M30.816,0,28.638,0A3.825,3.825,0,0,0,24.61,4.134V6.04H22.42a.343.343,0,0,0-.343.343V9.144a.342.342,0,0,0,.343.343h2.19v6.968a.342.342,0,0,0,.342.343H27.81a.342.342,0,0,0,.343-.343V9.486h2.561a.342.342,0,0,0,.342-.343V6.382a.343.343,0,0,0-.343-.343H28.152V4.424c0-.777.185-1.171,1.2-1.171h1.467a.342.342,0,0,0,.342-.343V.346A.343.343,0,0,0,30.816,0Z" transform="translate(-22.077)"/></svg>