<svg xmlns="http://www.w3.org/2000/svg" width="14.516" height="14.484" viewBox="0 0 14.516 14.484"><defs><style>.a{fill:#fff;}</style></defs><path class="a" d="M8.075,99.73H5.161a.234.234,0,0,0-.234.234v9.362a.234.234,0,0,0,.234.234H8.075a.234.234,0,0,0,.234-.234V99.964A.234.234,0,0,0,8.075,99.73Z" transform="translate(-4.696 -95.076)"/><path class="a" d="M1.923.341A1.921,1.921,0,1,0,3.844,2.262,1.924,1.924,0,0,0,1.923.341Z" transform="translate(0 -0.341)"/><path class="a" d="M112,94.761a3.423,3.423,0,0,0-2.56,1.075v-.608a.234.234,0,0,0-.234-.234H106.41a.234.234,0,0,0-.234.234v9.362a.234.234,0,0,0,.234.234h2.908a.234.234,0,0,0,.234-.234V99.958c0-1.561.424-2.169,1.512-2.169,1.185,0,1.279.975,1.279,2.249v4.552a.234.234,0,0,0,.234.234h2.909a.234.234,0,0,0,.234-.234V99.455C115.72,97.134,115.278,94.761,112,94.761Z" transform="translate(-101.204 -90.34)"/></svg>