<svg xmlns="http://www.w3.org/2000/svg" width="25.055" height="19.686" viewBox="0 0 25.055 19.686"><defs><style>.a{fill:#929292;}</style></defs><g transform="translate(0 -54.82)"><g transform="translate(0 54.82)"><path class="a" d="M2.4,60.888q.475.335,2.866,1.992t3.663,2.551q.14.1.594.427t.755.531q.3.2.727.454a4.218,4.218,0,0,0,.8.377,2.215,2.215,0,0,0,.7.126h.028a2.217,2.217,0,0,0,.7-.126,4.223,4.223,0,0,0,.8-.377q.426-.252.727-.454t.755-.531q.454-.329.594-.427l6.543-4.544a6.642,6.642,0,0,0,1.706-1.72,3.692,3.692,0,0,0,.685-2.111,2.256,2.256,0,0,0-2.237-2.237H2.237a2,2,0,0,0-1.657.727A2.822,2.822,0,0,0,0,57.364a3.266,3.266,0,0,0,.769,1.909A6.94,6.94,0,0,0,2.4,60.888Z" transform="translate(0 -54.82)"/><path class="a" d="M23.656,185.653q-4.585,3.1-6.962,4.824-.8.587-1.293.916a7.98,7.98,0,0,1-1.321.671,4.023,4.023,0,0,1-1.538.343h-.028a4.024,4.024,0,0,1-1.538-.343,7.984,7.984,0,0,1-1.321-.671q-.5-.328-1.293-.916-1.888-1.384-6.949-4.824A7.406,7.406,0,0,1,0,184.437v11.1a2.154,2.154,0,0,0,.657,1.58,2.154,2.154,0,0,0,1.58.657H22.818a2.244,2.244,0,0,0,2.237-2.237v-11.1A7.71,7.71,0,0,1,23.656,185.653Z" transform="translate(0 -178.09)"/></g></g></svg>