<svg xmlns="http://www.w3.org/2000/svg" xmlns:xlink="http://www.w3.org/1999/xlink" width="24" height="24" viewBox="0 0 24 24"><defs><style>.a{fill:url(#a);}.b{fill:#fff;}</style><linearGradient id="a" x1="0.5" x2="0.5" y2="1" gradientUnits="objectBoundingBox"><stop offset="0" stop-color="#ee2d25"/><stop offset="1" stop-color="#ffcdcb"/></linearGradient></defs><g transform="translate(0 0.385)"><rect class="a" width="24" height="24" rx="2" transform="translate(0 -0.385)"/><path class="b" d="M471.169,485.656H471.1a1.883,1.883,0,1,1,.045-3.764h.065a1.883,1.883,0,1,1-.038,3.765Zm4.74-9.182a8.7,8.7,0,0,1-1.582,1.382l-.809.545a2.152,2.152,0,0,0-.812.965,1.951,1.951,0,0,0-.125.81v.127h-3.088l.009-.255c.038-1.048.064-1.664.509-2.174a13.084,13.084,0,0,1,2.3-1.809,2.394,2.394,0,0,0,.545-.544,1.89,1.89,0,0,0,.468-1.117,2.141,2.141,0,0,0-.424-1.286,1.787,1.787,0,0,0-1.528-.56,1.681,1.681,0,0,0-1.544.7,2.752,2.752,0,0,0-.467,1.5v.129h-3.184l.006-.134a4.688,4.688,0,0,1,2.068-4.073,5.552,5.552,0,0,1,3-.767A6.582,6.582,0,0,1,475.114,471a3.732,3.732,0,0,1,1.563,3.249A3.658,3.658,0,0,1,475.91,476.475Z" transform="translate(-459.622 -465.977)"/></g></svg>