<svg xmlns="http://www.w3.org/2000/svg" width="18.777" height="15.256" viewBox="0 0 18.777 15.256"><defs><style>.a{fill:#fff;}</style></defs><g transform="translate(0 0)"><path class="a" d="M18.777,49.806a8.026,8.026,0,0,1-2.218.608,3.828,3.828,0,0,0,1.693-2.128,7.693,7.693,0,0,1-2.441.932A3.849,3.849,0,0,0,9.152,51.85a3.964,3.964,0,0,0,.089.878A10.9,10.9,0,0,1,1.307,48.7,3.85,3.85,0,0,0,2.49,53.847a3.8,3.8,0,0,1-1.739-.474v.042A3.867,3.867,0,0,0,3.835,57.2a3.842,3.842,0,0,1-1.009.127,3.4,3.4,0,0,1-.729-.066,3.886,3.886,0,0,0,3.6,2.682A7.735,7.735,0,0,1,.921,61.581,7.209,7.209,0,0,1,0,61.529a10.837,10.837,0,0,0,5.905,1.727A10.881,10.881,0,0,0,16.861,52.3c0-.17-.006-.334-.014-.5A7.679,7.679,0,0,0,18.777,49.806Z" transform="translate(0 -48)"/></g></svg>